Coordinates
version=1
nRows=8
nColumns=63
inDegrees=yes

Units are S.I. units (second, meters, Newtons, ...)
If the header above contains a line with 'inDegrees', this indicates whether rotational values are in degrees (yes) or radians (no).

endheader
time	pelvis_tilt	pelvis_list	pelvis_rotation	pelvis_tx	pelvis_ty	pelvis_tz	hip_flexion_r	hip_adduction_r	hip_rotation_r	knee_angle_r	knee_angle_r_beta	ankle_angle_r	subtalar_angle_r	mtp_angle_r	hip_flexion_l	hip_adduction_l	hip_rotation_l	knee_angle_l	knee_angle_l_beta	ankle_angle_l	subtalar_angle_l	mtp_angle_l	L5_S1_Flex_Ext	L5_S1_Lat_Bending	L5_S1_axial_rotation	L4_L5_Flex_Ext	L4_L5_Lat_Bending	L4_L5_axial_rotation	L3_L4_Flex_Ext	L3_L4_Lat_Bending	L3_L4_axial_rotation	L2_L3_Flex_Ext	L2_L3_Lat_Bending	L2_L3_axial_rotation	L1_L2_Flex_Ext	L1_L2_Lat_Bending	L1_L2_axial_rotation	L1_T12_Flex_Ext	L1_T12_Lat_Bending	L1_T12_axial_rotation	Abs_r3	Abs_r2	Abs_r1	Abs_t1	Abs_t2	neck_flexion	neck_bending	neck_rotation	arm_flex_r	arm_add_r	arm_rot_r	elbow_flex_r	pro_sup_r	wrist_flex_r	wrist_dev_r	arm_flex_l	arm_add_l	arm_rot_l	elbow_flex_l	pro_sup_l	wrist_flex_l	wrist_dev_l
3.500000	-1.403495	-0.129273	89.250817	0.199433	0.996196	0.356008	-8.764487	-1.893020	-11.709206	6.828938	0.119187	20.870930	1.468721	0.000000	-9.047056	-0.412541	-12.980414	4.413159	0.077024	27.078845	16.076245	0.000000	-0.001413	0.031092	-0.451780	-0.002625	0.041352	-0.480016	-0.002322	0.075597	-0.480016	-0.001615	0.075597	-0.395307	-0.001313	0.063403	-0.367071	-0.000808	0.048162	-0.338835	-0.010096	0.351720	-2.512664	0.000000	0.000000	11.181366	1.075900	3.210700	-6.203987	-25.818776	32.057405	120.073890	45.618304	-4.077823	22.419673	-11.851108	-22.391551	25.667920	119.310960	85.542244	4.340438	11.236763
3.518519	-1.268805	-0.209156	89.210245	0.199595	0.996492	0.356636	-8.658890	-1.737773	-11.791749	6.672754	0.116462	21.018609	1.883860	0.000000	-8.892639	-0.591217	-13.221041	4.545985	0.079342	26.785097	16.120184	0.000000	0.005865	0.046620	-0.455306	0.010891	0.062004	-0.483762	0.009635	0.113352	-0.483762	0.006703	0.113352	-0.398393	0.005446	0.095067	-0.369936	0.003351	0.072214	-0.341479	0.041891	0.527373	-2.532275	0.000000	0.000000	11.486026	1.002804	2.993499	-5.890072	-25.865673	32.032409	120.117378	45.965834	-4.995484	21.872910	-11.558806	-22.195101	25.537007	119.320364	85.021587	4.596615	12.429398
3.537037	-1.126473	-0.277148	89.176866	0.199737	0.996792	0.357259	-8.567330	-1.572724	-11.873215	6.507762	0.113582	21.172365	2.275556	0.000000	-8.734526	-0.783392	-13.494718	4.721762	0.082410	26.482668	16.197603	0.000000	0.012737	0.062762	-0.459474	0.023654	0.083474	-0.488191	0.020925	0.152600	-0.488191	0.014557	0.152600	-0.402040	0.011827	0.127985	-0.373323	0.007278	0.097219	-0.344606	0.090978	0.709979	-2.555457	0.000000	0.000000	11.752685	0.905577	2.790041	-5.505940	-25.923254	32.024024	120.114919	46.106021	-5.800141	21.360530	-11.216385	-22.064528	25.476040	119.310250	84.679396	4.874734	13.479671
3.555556	-0.989075	-0.326955	89.148657	0.199902	0.997097	0.357865	-8.497437	-1.407003	-11.883975	6.339068	0.110638	21.306142	2.538478	0.000000	-8.589159	-0.973129	-13.726533	4.918814	0.085849	26.157627	16.229823	0.000000	0.018641	0.077503	-0.458532	0.034619	0.103078	-0.487190	0.030626	0.188440	-0.487190	0.021305	0.188440	-0.401215	0.017310	0.158043	-0.372557	0.010652	0.120051	-0.343899	0.133154	0.876724	-2.550215	0.000000	0.000000	11.974392	0.783168	2.585371	-5.078120	-25.990366	32.074213	120.087261	46.457371	-6.780447	20.721002	-10.803231	-22.018670	25.531851	119.300168	84.394186	5.078885	14.589369
3.574074	-0.855043	-0.369266	89.116556	0.200090	0.997387	0.358397	-8.441969	-1.239816	-11.800290	6.165192	0.107603	21.371691	2.626911	0.000000	-8.469344	-1.153551	-13.910844	5.088711	0.088815	25.817962	16.224878	0.000000	0.025623	0.091273	-0.450228	0.047584	0.121393	-0.478368	0.042096	0.221921	-0.478368	0.029285	0.221921	-0.393950	0.023794	0.186123	-0.365810	0.014641	0.141381	-0.337671	0.183022	1.032496	-2.504035	0.000000	0.000000	12.153655	0.680194	2.397030	-4.696168	-26.000425	32.023675	120.023078	46.798560	-7.642221	20.299795	-10.363631	-22.048795	25.713787	119.206727	84.281905	5.168623	15.236879
3.592593	-0.738274	-0.386428	89.109232	0.200269	0.997682	0.358847	-8.423076	-1.086021	-11.724234	5.991978	0.104580	21.392834	2.640824	0.000000	-8.386598	-1.315050	-14.027352	5.238135	0.091423	25.482552	16.206449	0.000000	0.030920	0.101928	-0.439607	0.057421	0.135565	-0.467082	0.050798	0.247829	-0.467082	0.035338	0.247829	-0.384656	0.028712	0.207853	-0.357180	0.017668	0.157887	-0.329705	0.220857	1.153035	-2.444961	0.000000	0.000000	12.305386	0.561546	2.170074	-4.343056	-25.989006	31.973415	119.914697	47.173726	-8.483692	19.789036	-9.887872	-22.151273	26.005078	119.040865	84.218486	5.222100	15.595578
3.611111	-0.619460	-0.394019	89.082424	0.200439	0.997952	0.359191	-8.417722	-0.939997	-11.681919	5.830897	0.101768	21.391352	2.695754	0.000000	-8.339258	-1.466369	-14.170875	5.346988	0.093323	25.195692	16.254862	0.000000	0.035840	0.112721	-0.424693	0.066559	0.149919	-0.451237	0.058882	0.274070	-0.451237	0.040962	0.274070	-0.371607	0.033281	0.229861	-0.345063	0.020479	0.174605	-0.318520	0.256004	1.275125	-2.362016	0.000000	0.000000	12.486760	0.440503	1.961095	-4.029849	-25.951496	31.863402	119.741935	47.568673	-8.984108	19.427699	-9.467258	-22.243029	26.327076	118.825613	84.243471	5.127883	15.678420
3.629630	-0.506086	-0.395211	89.051344	0.200602	0.998181	0.359401	-8.430377	-0.793913	-11.444333	5.670490	0.098969	21.325386	2.448921	0.000000	-8.332653	-1.597965	-14.195194	5.395823	0.094175	24.928380	16.201256	0.000000	0.040952	0.122442	-0.411194	0.076052	0.162848	-0.436894	0.067280	0.297706	-0.436894	0.046804	0.297706	-0.359795	0.038028	0.249684	-0.334095	0.023400	0.189663	-0.308395	0.292515	1.385089	-2.286937	0.000000	0.000000	12.707732	0.344171	1.803931	-3.754184	-25.900124	31.748914	119.549045	48.093695	-9.360804	19.211792	-9.136899	-22.305926	26.631722	118.595553	84.323323	4.886523	15.603585
